<svg width="11" height="16" viewBox="0 0 11 16" fill="none" xmlns="http://www.w3.org/2000/svg">
<path d="M5.63617 15.8537C5.45943 15.8537 5.30794 15.8032 5.1817 15.7022C5.05546 15.6012 4.96078 15.4687 4.89765 15.3045C4.65779 14.5976 4.35481 13.9348 3.98871 13.3162C3.63523 12.6976 3.13657 11.9717 2.49273 11.1385C1.8489 10.3053 1.32499 9.51001 0.921012 8.75255C0.52966 7.9951 0.333984 7.07984 0.333984 6.00678C0.333984 4.52974 0.845267 3.27994 1.86783 2.25737C2.90302 1.22218 4.15913 0.70459 5.63617 0.70459C7.11321 0.70459 8.36301 1.22218 9.38558 2.25737C10.4208 3.27994 10.9384 4.52974 10.9384 6.00678C10.9384 7.15558 10.7174 8.11503 10.2756 8.88511C9.84636 9.64256 9.3477 10.3937 8.77961 11.1385C8.0979 12.0475 7.58031 12.8049 7.22683 13.4109C6.88597 14.0042 6.60193 14.6355 6.37469 15.3045C6.31157 15.4813 6.21058 15.6201 6.07171 15.7211C5.94547 15.8095 5.80029 15.8537 5.63617 15.8537ZM5.63617 7.90042C6.16639 7.90042 6.61455 7.71736 6.98066 7.35126C7.34676 6.98516 7.52981 6.537 7.52981 6.00678C7.52981 5.47656 7.34676 5.0284 6.98066 4.66229C6.61455 4.29619 6.16639 4.11314 5.63617 4.11314C5.10595 4.11314 4.65779 4.29619 4.29169 4.66229C3.92559 5.0284 3.74253 5.47656 3.74253 6.00678C3.74253 6.537 3.92559 6.98516 4.29169 7.35126C4.65779 7.71736 5.10595 7.90042 5.63617 7.90042Z" fill="#EE8D4A"/>
</svg>
