<svg width="19" height="19" viewBox="0 0 19 19" fill="none" xmlns="http://www.w3.org/2000/svg">
<path d="M9.15828 9.30867C8.32508 9.30867 7.6118 9.012 7.01846 8.41866C6.42512 7.82532 6.12845 7.11205 6.12845 6.27885C6.12845 5.44564 6.42512 4.73237 7.01846 4.13903C7.6118 3.54569 8.32508 3.24902 9.15828 3.24902C9.99148 3.24902 10.7047 3.54569 11.2981 4.13903C11.8914 4.73237 12.1881 5.44564 12.1881 6.27885C12.1881 7.11205 11.8914 7.82532 11.2981 8.41866C10.7047 9.012 9.99148 9.30867 9.15828 9.30867ZM3.09863 15.3683V13.2474C3.09863 12.8182 3.2091 12.4237 3.43002 12.0639C3.65094 11.7041 3.94446 11.4295 4.31056 11.2402C5.09327 10.8488 5.88859 10.5553 6.69655 10.3596C7.5045 10.164 8.32508 10.0661 9.15828 10.0661C9.99148 10.0661 10.8121 10.164 11.62 10.3596C12.428 10.5553 13.2233 10.8488 14.006 11.2402C14.3721 11.4295 14.6656 11.7041 14.8865 12.0639C15.1075 12.4237 15.2179 12.8182 15.2179 13.2474V15.3683H3.09863ZM4.61354 13.8534H13.703V13.2474C13.703 13.1086 13.6683 12.9823 13.5989 12.8687C13.5294 12.7551 13.4379 12.6667 13.3243 12.6036C12.6426 12.2627 11.9545 12.0071 11.2602 11.8367C10.5659 11.6662 9.86523 11.581 9.15828 11.581C8.45132 11.581 7.75067 11.6662 7.05634 11.8367C6.362 12.0071 5.67398 12.2627 4.99227 12.6036C4.87865 12.6667 4.78713 12.7551 4.71769 12.8687C4.64826 12.9823 4.61354 13.1086 4.61354 13.2474V13.8534ZM9.15828 7.79376C9.57488 7.79376 9.93151 7.64542 10.2282 7.34875C10.5249 7.05208 10.6732 6.69545 10.6732 6.27885C10.6732 5.86224 10.5249 5.50561 10.2282 5.20894C9.93151 4.91227 9.57488 4.76393 9.15828 4.76393C8.74168 4.76393 8.38504 4.91227 8.08837 5.20894C7.7917 5.50561 7.64337 5.86224 7.64337 6.27885C7.64337 6.69545 7.7917 7.05208 8.08837 7.34875C8.38504 7.64542 8.74168 7.79376 9.15828 7.79376Z" fill="#EE8D4A"/>
</svg>
